<svg width="40" height="50" viewBox="0 0 40 50" fill="none" xmlns="http://www.w3.org/2000/svg">
<path fill-rule="evenodd" clip-rule="evenodd" d="M17.1135 3.0215H16.9769C16.7669 3.00878 16.557 3.0037 16.347 2.99861H16.347H16.3268H15.8917C15.4945 2.99861 15.0897 3.00878 14.6875 3.02912C14.6572 3.02692 14.6267 3.02692 14.5964 3.02912C10.9521 3.23561 7.38159 4.14649 4.08036 5.7119L3.64778 5.92042V28.0616L4.65967 27.7183C5.54761 27.4131 6.49372 27.1385 7.47273 26.8842C10.1192 26.2048 12.8366 25.8437 15.5678 25.8085V28.7176C15.2061 28.7202 14.8545 28.7303 14.5028 28.7481H14.4193C12.3174 28.8634 10.2315 29.1837 8.19117 29.7043C5.60704 30.3512 3.11421 31.3226 0.771484 32.5956V4.19886C3.20457 2.77973 5.82521 1.71385 8.55545 1.03294C10.9526 0.414027 13.4168 0.0962821 15.8917 0.0869751H16.3192C16.8302 0.0996897 17.3285 0.122576 17.7965 0.158177C19.0296 0.244751 20.2527 0.439603 21.452 0.740503V3.60382C20.2873 3.33248 19.103 3.15393 17.9104 3.06981C17.8862 3.06777 17.862 3.0657 17.8377 3.06363C17.591 3.04258 17.3439 3.0215 17.1135 3.0215ZM22.1527 5.94836C22.7876 5.99667 23.4453 6.01956 24.1107 6.01956C26.7124 6.01005 29.303 5.67781 31.8238 5.03037C34.4067 4.38094 36.8985 3.40875 39.2409 2.13654V30.0272C36.8065 31.4455 34.1852 32.5113 31.4545 33.1931C29.057 33.8097 26.5929 34.1265 24.1182 34.1365C22.2432 34.1517 20.3736 33.9313 18.5529 33.4805V5.40926C18.9829 5.50844 19.4256 5.59998 19.8759 5.67627C20.6146 5.80087 21.3937 5.89242 22.1527 5.94836ZM36.3469 6.16451L35.335 6.50526C34.4041 6.81804 33.4656 7.09775 32.522 7.34696C29.7748 8.05293 26.9513 8.41507 24.1157 8.42515C23.4555 8.42515 22.8483 8.40735 22.2614 8.36921L21.4545 8.31581V28.4048V31.0927L22.1476 31.1537C22.7901 31.2096 23.4529 31.2376 24.1208 31.2376C26.3543 31.2281 28.578 30.9403 30.7411 30.3806C32.5222 29.9339 34.2551 29.3112 35.9144 28.5218L36.3469 28.3133V6.16451Z" fill="#AFB1B8"/>
<path d="M2.73726 42.2994C2.59178 42.1485 2.41641 42.0301 2.22248 41.9516C2.02856 41.8732 1.82042 41.8366 1.61153 41.8442C1.38892 41.8413 1.16793 41.8828 0.961389 41.9663C0.772023 42.0417 0.599889 42.1551 0.455444 42.2994C0.312573 42.4442 0.201414 42.6175 0.12911 42.808C0.0498013 43.0077 0.0102645 43.2211 0.0127426 43.4361V47.2301C0.0036949 47.4975 0.0547102 47.7634 0.161996 48.0083C0.251555 48.2027 0.380847 48.376 0.541455 48.5168C0.693075 48.6445 0.8711 48.7366 1.06258 48.7864C1.24706 48.8382 1.43768 48.8648 1.62924 48.8652C1.84053 48.8673 2.04965 48.8222 2.24143 48.733C2.43107 48.65 2.60289 48.5308 2.74737 48.3821C2.88826 48.2347 3.00064 48.0622 3.07877 47.8735C3.15985 47.6822 3.20117 47.4762 3.2002 47.2683V46.8436H2.20854V47.1818C2.21149 47.2973 2.19172 47.4122 2.15036 47.52C2.11807 47.6008 2.06889 47.6736 2.00617 47.7336C1.94474 47.7833 1.87428 47.8204 1.79873 47.843C1.73176 47.8653 1.66182 47.8773 1.59129 47.8786C1.50275 47.8889 1.41308 47.8755 1.33134 47.8398C1.24961 47.804 1.17871 47.7473 1.12582 47.6751C1.03234 47.5227 0.986517 47.3455 0.994276 47.1666V43.6294C0.988124 43.4332 1.02981 43.2385 1.1157 43.0623C1.16718 42.9822 1.24002 42.9183 1.3259 42.8778C1.41178 42.8374 1.50725 42.822 1.60141 42.8334C1.68689 42.8304 1.77182 42.8482 1.84893 42.8854C1.92603 42.9226 1.99301 42.9781 2.04411 43.047C2.15508 43.1927 2.2131 43.3722 2.20854 43.5556V43.8837H3.19008V43.4971C3.19207 43.2701 3.15085 43.0449 3.06865 42.8334C2.99539 42.6347 2.88264 42.453 2.73726 42.2994Z" fill="#AFB1B8"/>
<path d="M8.62892 42.2561C8.31271 41.9891 7.91362 41.8416 7.50066 41.8391C7.29868 41.84 7.09838 41.8761 6.9087 41.9459C6.71613 42.0149 6.53841 42.1202 6.38505 42.2561C6.22076 42.4038 6.08968 42.585 6.00053 42.7876C5.90063 43.0194 5.85146 43.27 5.85634 43.5225V47.1614C5.8495 47.4174 5.89873 47.6718 6.00053 47.9065C6.09028 48.1022 6.22152 48.2758 6.38505 48.4151C6.53665 48.5558 6.71468 48.6648 6.9087 48.7355C7.09838 48.8053 7.29868 48.8414 7.50066 48.8423C7.70269 48.8419 7.90307 48.8058 8.09262 48.7355C8.28995 48.6638 8.47195 48.5551 8.62892 48.4151C8.7871 48.2732 8.91454 48.1 9.00332 47.9065C9.10512 47.6718 9.15435 47.4174 9.14751 47.1614V43.5225C9.15239 43.27 9.10322 43.0194 9.00332 42.7876C8.91505 42.5871 8.78775 42.4064 8.62892 42.2561ZM8.16598 47.1614C8.17434 47.2584 8.16095 47.356 8.1268 47.4471C8.09265 47.5382 8.03861 47.6205 7.96866 47.6878C7.83768 47.7977 7.67251 47.8578 7.50193 47.8578C7.33135 47.8578 7.16617 47.7977 7.03519 47.6878C6.96524 47.6205 6.9112 47.5382 6.87705 47.4471C6.8429 47.356 6.82952 47.2584 6.83787 47.1614V43.5225C6.82952 43.4255 6.8429 43.3279 6.87705 43.2368C6.9112 43.1457 6.96524 43.0635 7.03519 42.9961C7.16617 42.8863 7.33135 42.8261 7.50193 42.8261C7.67251 42.8261 7.83768 42.8863 7.96866 42.9961C8.03861 43.0635 8.09265 43.1457 8.1268 43.2368C8.16095 43.3279 8.17434 43.4255 8.16598 43.5225V47.1614Z" fill="#AFB1B8"/>
<path d="M16.3673 48.7864V41.8977H15.4136L14.1614 45.5442H14.1437L12.8813 41.8977H11.9377V48.7864H12.9218V44.5957H12.9395L13.9033 47.5582H14.3941L15.3655 44.5957H15.3832V48.7864H16.3673Z" fill="#AFB1B8"/>
<path d="M21.9582 42.3807C21.8067 42.2107 21.6154 42.0814 21.4016 42.0043C21.1713 41.9294 20.9303 41.8933 20.6883 41.8975H19.2261V48.7863H20.2076V46.0959H20.7136C21.0198 46.1098 21.3245 46.0451 21.599 45.9077C21.8221 45.7838 22.0082 45.602 22.1378 45.3813C22.2513 45.1981 22.3278 44.9942 22.3629 44.7812C22.4016 44.522 22.4193 44.2601 22.4161 43.998C22.4256 43.6672 22.3933 43.3365 22.3199 43.0139C22.2545 42.7755 22.13 42.5577 21.9582 42.3807ZM21.4522 44.4812C21.448 44.6059 21.4169 44.7282 21.3612 44.8397C21.3051 44.9456 21.2163 45.0304 21.1082 45.0813C20.9628 45.1463 20.8042 45.1759 20.6453 45.1677H20.1975V42.8257H20.7034C20.8558 42.8182 21.0077 42.8479 21.1461 42.9122C21.2476 42.9704 21.3282 43.0594 21.3763 43.1665C21.43 43.2875 21.4592 43.418 21.4624 43.5504C21.4624 43.6954 21.4624 43.848 21.4624 44.0082C21.4624 44.1684 21.4725 44.3337 21.4624 44.4812H21.4522Z" fill="#AFB1B8"/>
<path d="M26.6077 41.8977H25.8032L24.2854 48.7864H25.2669L25.5553 47.3065H26.8935L27.1819 48.7864H28.1635L26.6077 41.8977ZM25.702 46.3681L26.1852 43.871H26.2029L26.6836 46.3681H25.702Z" fill="#AFB1B8"/>
<path d="M32.9497 46.0477H32.932L31.4496 41.8977H30.506V48.7864H31.4875V44.644H31.5078L33.0079 48.7864H33.9312V41.8977H32.9497V46.0477Z" fill="#AFB1B8"/>
<path d="M38.9476 41.8977L38.1583 44.6364H38.1381L37.3488 41.8977H36.3091L37.6574 45.8748V48.7864H38.639V45.8748L39.9873 41.8977H38.9476Z" fill="#AFB1B8"/>
</svg>
