<svg width="85" height="42" viewBox="0 0 85 42" fill="none" xmlns="http://www.w3.org/2000/svg">
<path d="M13.1462 13.1899H13.1433C10.7453 13.1899 8.80127 14.9175 8.80127 17.0485V17.0511C8.80127 19.1822 10.7453 20.9098 13.1433 20.9098H13.1462C15.5442 20.9098 17.4882 19.1822 17.4882 17.0511V17.0485C17.4882 14.9175 15.5442 13.1899 13.1462 13.1899Z" fill="#2196F3"/>
<path d="M45.195 11.9563C45.1882 8.99633 43.8623 6.15926 41.5074 4.06599C39.1525 1.97271 35.9604 0.793708 32.6297 0.786987V0.786987C29.298 0.792365 26.1045 1.97078 23.7484 4.0642C21.3922 6.15762 20.0655 8.99545 20.0587 11.9563V28.2792C20.0587 28.2792 45.1922 25.7914 45.195 11.9589V11.9563Z" fill="#2196F3"/>
<path d="M0 33.6365C0.00604098 35.6961 0.929149 37.6698 2.56761 39.1264C4.20607 40.583 6.42668 41.404 8.74418 41.4101C11.0612 41.4041 13.2814 40.5834 14.9197 39.1273C16.5581 37.6713 17.4816 35.6982 17.4884 33.639V22.2814C17.4884 22.2814 0 24.0136 0 33.6365ZM8.74418 35.6715C8.2913 35.6715 7.84859 35.5521 7.47203 35.3285C7.09548 35.1049 6.80199 34.7871 6.62868 34.4153C6.45537 34.0434 6.41002 33.6342 6.49838 33.2395C6.58673 32.8448 6.80481 32.4822 7.12505 32.1976C7.44528 31.913 7.85328 31.7192 8.29746 31.6406C8.74164 31.5621 9.20204 31.6024 9.62045 31.7564C10.0389 31.9105 10.3965 32.1713 10.6481 32.5059C10.8997 32.8406 11.034 33.234 11.034 33.6365C11.0351 33.9044 10.9767 34.1698 10.8622 34.4176C10.7476 34.6654 10.5791 34.8906 10.3664 35.0804C10.1536 35.2702 9.90081 35.4207 9.62244 35.5235C9.34406 35.6262 9.04561 35.6791 8.74418 35.6791V35.6715Z" fill="#2196F3"/>
<path d="M24.7302 32.0283V36.2939H23.8513V32.0283H24.7302ZM26.4294 33.8506V34.5361H24.49V33.8506H26.4294ZM26.6345 32.0283V32.7168H24.49V32.0283H26.6345ZM30.6482 34.0615V34.2637C30.6482 34.5879 30.6042 34.8789 30.5164 35.1367C30.4285 35.3945 30.3044 35.6143 30.1443 35.7959C29.9841 35.9756 29.7927 36.1133 29.5701 36.209C29.3494 36.3047 29.1042 36.3525 28.8347 36.3525C28.5671 36.3525 28.322 36.3047 28.0994 36.209C27.8787 36.1133 27.6873 35.9756 27.5251 35.7959C27.363 35.6143 27.2371 35.3945 27.1472 35.1367C27.0593 34.8789 27.0154 34.5879 27.0154 34.2637V34.0615C27.0154 33.7354 27.0593 33.4443 27.1472 33.1885C27.2351 32.9307 27.3591 32.7109 27.5193 32.5293C27.6814 32.3477 27.8728 32.209 28.0935 32.1133C28.3162 32.0176 28.5613 31.9697 28.8289 31.9697C29.0984 31.9697 29.3435 32.0176 29.5642 32.1133C29.7869 32.209 29.9783 32.3477 30.1384 32.5293C30.3005 32.7109 30.4255 32.9307 30.5134 33.1885C30.6033 33.4443 30.6482 33.7354 30.6482 34.0615ZM29.7605 34.2637V34.0557C29.7605 33.8291 29.74 33.6299 29.699 33.458C29.658 33.2861 29.5974 33.1416 29.5173 33.0244C29.4373 32.9072 29.3396 32.8193 29.2244 32.7607C29.1091 32.7002 28.9773 32.6699 28.8289 32.6699C28.6804 32.6699 28.5486 32.7002 28.4333 32.7607C28.3201 32.8193 28.2234 32.9072 28.1433 33.0244C28.0652 33.1416 28.0056 33.2861 27.9646 33.458C27.9236 33.6299 27.9031 33.8291 27.9031 34.0557V34.2637C27.9031 34.4883 27.9236 34.6875 27.9646 34.8613C28.0056 35.0332 28.0662 35.1787 28.1462 35.2979C28.2263 35.415 28.324 35.5039 28.4392 35.5645C28.5544 35.625 28.6863 35.6553 28.8347 35.6553C28.9832 35.6553 29.115 35.625 29.2302 35.5645C29.3455 35.5039 29.4421 35.415 29.5203 35.2979C29.5984 35.1787 29.658 35.0332 29.699 34.8613C29.74 34.6875 29.7605 34.4883 29.7605 34.2637ZM33.5017 35.1777C33.5017 35.1016 33.49 35.0332 33.4666 34.9727C33.4451 34.9102 33.4041 34.8535 33.3435 34.8027C33.283 34.75 33.198 34.6982 33.0886 34.6475C32.9792 34.5967 32.8376 34.5439 32.6638 34.4893C32.4705 34.4268 32.2869 34.3564 32.113 34.2783C31.9412 34.2002 31.7888 34.1094 31.656 34.0059C31.5251 33.9004 31.4216 33.7783 31.3455 33.6396C31.2712 33.501 31.2341 33.3398 31.2341 33.1562C31.2341 32.9785 31.2732 32.8174 31.3513 32.6729C31.4294 32.5264 31.5388 32.4014 31.6794 32.2979C31.8201 32.1924 31.9861 32.1113 32.1775 32.0547C32.3708 31.998 32.5828 31.9697 32.8132 31.9697C33.1277 31.9697 33.4021 32.0264 33.6365 32.1396C33.8708 32.2529 34.0525 32.4082 34.1814 32.6055C34.3123 32.8027 34.3777 33.0283 34.3777 33.2822H33.5046C33.5046 33.1572 33.4783 33.0479 33.4255 32.9541C33.3748 32.8584 33.2966 32.7832 33.1912 32.7285C33.0876 32.6738 32.9568 32.6465 32.7986 32.6465C32.6462 32.6465 32.5193 32.6699 32.4177 32.7168C32.3162 32.7617 32.24 32.8232 32.1892 32.9014C32.1384 32.9775 32.113 33.0635 32.113 33.1592C32.113 33.2314 32.1306 33.2969 32.1658 33.3555C32.2029 33.4141 32.2576 33.4688 32.3298 33.5195C32.4021 33.5703 32.491 33.6182 32.5964 33.6631C32.7019 33.708 32.824 33.752 32.9626 33.7949C33.1951 33.8652 33.3992 33.9443 33.575 34.0322C33.7527 34.1201 33.9011 34.2188 34.0203 34.3281C34.1394 34.4375 34.2292 34.5615 34.2898 34.7002C34.3503 34.8389 34.3806 34.9961 34.3806 35.1719C34.3806 35.3574 34.3445 35.5234 34.2722 35.6699C34.2 35.8164 34.0955 35.9404 33.9587 36.042C33.822 36.1436 33.6589 36.2207 33.4695 36.2734C33.28 36.3262 33.0681 36.3525 32.8337 36.3525C32.6228 36.3525 32.4148 36.3252 32.2097 36.2705C32.0046 36.2139 31.8181 36.1289 31.6501 36.0156C31.4841 35.9023 31.3513 35.7578 31.2517 35.582C31.1521 35.4062 31.1023 35.1982 31.1023 34.958H31.9841C31.9841 35.0908 32.0046 35.2031 32.0457 35.2949C32.0867 35.3867 32.1443 35.4609 32.2185 35.5176C32.2947 35.5742 32.3845 35.6152 32.488 35.6406C32.5935 35.666 32.7087 35.6787 32.8337 35.6787C32.9861 35.6787 33.1111 35.6572 33.2087 35.6143C33.3083 35.5713 33.3816 35.5117 33.4285 35.4355C33.4773 35.3594 33.5017 35.2734 33.5017 35.1777ZM36.8855 32.0283V36.2939H36.0095V32.0283H36.8855ZM38.198 32.0283V32.7168H34.7175V32.0283H38.198ZM41.5613 35.6084V36.2939H39.2908V35.6084H41.5613ZM39.5779 32.0283V36.2939H38.699V32.0283H39.5779ZM41.2654 33.7656V34.4336H39.2908V33.7656H41.2654ZM41.5583 32.0283V32.7168H39.2908V32.0283H41.5583ZM42.074 32.0283H43.6648C43.991 32.0283 44.2712 32.0771 44.5056 32.1748C44.7419 32.2725 44.9236 32.417 45.0505 32.6084C45.1775 32.7998 45.241 33.0352 45.241 33.3145C45.241 33.543 45.2019 33.7393 45.1238 33.9033C45.0476 34.0654 44.9392 34.2012 44.7986 34.3105C44.6599 34.418 44.4968 34.5039 44.3093 34.5684L44.031 34.7148H42.6482L42.6423 34.0293H43.6707C43.825 34.0293 43.9529 34.002 44.0544 33.9473C44.156 33.8926 44.2322 33.8164 44.283 33.7188C44.3357 33.6211 44.3621 33.5078 44.3621 33.3789C44.3621 33.2422 44.3367 33.124 44.2859 33.0244C44.2351 32.9248 44.158 32.8486 44.0544 32.7959C43.9509 32.7432 43.821 32.7168 43.6648 32.7168H42.9529V36.2939H42.074V32.0283ZM44.4587 36.2939L43.4861 34.3926L44.4148 34.3867L45.3992 36.2529V36.2939H44.4587ZM49.073 34.7734H47.9861V34.0879H49.073C49.241 34.0879 49.3777 34.0605 49.4832 34.0059C49.5886 33.9492 49.6658 33.8711 49.7146 33.7715C49.7634 33.6719 49.7878 33.5596 49.7878 33.4346C49.7878 33.3076 49.7634 33.1895 49.7146 33.0801C49.6658 32.9707 49.5886 32.8828 49.4832 32.8164C49.3777 32.75 49.241 32.7168 49.073 32.7168H48.2908V36.2939H47.4119V32.0283H49.073C49.407 32.0283 49.6931 32.0889 49.9314 32.21C50.1716 32.3291 50.3552 32.4941 50.4822 32.7051C50.6091 32.916 50.6726 33.1572 50.6726 33.4287C50.6726 33.7041 50.6091 33.9424 50.4822 34.1436C50.3552 34.3447 50.1716 34.5 49.9314 34.6094C49.6931 34.7188 49.407 34.7734 49.073 34.7734ZM54.1414 35.6084V36.2939H51.8708V35.6084H54.1414ZM52.158 32.0283V36.2939H51.2791V32.0283H52.158ZM53.8455 33.7656V34.4336H51.8708V33.7656H53.8455ZM54.1384 32.0283V32.7168H51.8708V32.0283H54.1384ZM56.6199 32.0283V36.2939H55.7439V32.0283H56.6199ZM57.9324 32.0283V32.7168H54.4519V32.0283H57.9324ZM61.2957 35.6084V36.2939H59.0251V35.6084H61.2957ZM59.3123 32.0283V36.2939H58.4333V32.0283H59.3123ZM60.9998 33.7656V34.4336H59.0251V33.7656H60.9998ZM61.2927 32.0283V32.7168H59.0251V32.0283H61.2927ZM61.8083 32.0283H63.3992C63.7253 32.0283 64.0056 32.0771 64.24 32.1748C64.4763 32.2725 64.658 32.417 64.7849 32.6084C64.9119 32.7998 64.9753 33.0352 64.9753 33.3145C64.9753 33.543 64.9363 33.7393 64.8582 33.9033C64.782 34.0654 64.6736 34.2012 64.533 34.3105C64.3943 34.418 64.2312 34.5039 64.0437 34.5684L63.7654 34.7148H62.3826L62.3767 34.0293H63.405C63.5593 34.0293 63.6873 34.002 63.7888 33.9473C63.8904 33.8926 63.9666 33.8164 64.0173 33.7188C64.0701 33.6211 64.0964 33.5078 64.0964 33.3789C64.0964 33.2422 64.071 33.124 64.0203 33.0244C63.9695 32.9248 63.8923 32.8486 63.7888 32.7959C63.6853 32.7432 63.5554 32.7168 63.3992 32.7168H62.6873V36.2939H61.8083V32.0283ZM64.1931 36.2939L63.2205 34.3926L64.1492 34.3867L65.1335 36.2529V36.2939H64.1931ZM67.8728 35.1777C67.8728 35.1016 67.8611 35.0332 67.8376 34.9727C67.8162 34.9102 67.7751 34.8535 67.7146 34.8027C67.6541 34.75 67.5691 34.6982 67.4597 34.6475C67.3503 34.5967 67.2087 34.5439 67.0349 34.4893C66.8416 34.4268 66.658 34.3564 66.4841 34.2783C66.3123 34.2002 66.1599 34.1094 66.0271 34.0059C65.8962 33.9004 65.7927 33.7783 65.7166 33.6396C65.6423 33.501 65.6052 33.3398 65.6052 33.1562C65.6052 32.9785 65.6443 32.8174 65.7224 32.6729C65.8005 32.5264 65.9099 32.4014 66.0505 32.2979C66.1912 32.1924 66.3572 32.1113 66.5486 32.0547C66.7419 31.998 66.9539 31.9697 67.1843 31.9697C67.4988 31.9697 67.7732 32.0264 68.0076 32.1396C68.2419 32.2529 68.4236 32.4082 68.5525 32.6055C68.6833 32.8027 68.7488 33.0283 68.7488 33.2822H67.8757C67.8757 33.1572 67.8494 33.0479 67.7966 32.9541C67.7458 32.8584 67.6677 32.7832 67.5623 32.7285C67.4587 32.6738 67.3279 32.6465 67.1697 32.6465C67.0173 32.6465 66.8904 32.6699 66.7888 32.7168C66.6873 32.7617 66.6111 32.8232 66.5603 32.9014C66.5095 32.9775 66.4841 33.0635 66.4841 33.1592C66.4841 33.2314 66.5017 33.2969 66.5369 33.3555C66.574 33.4141 66.6287 33.4688 66.7009 33.5195C66.7732 33.5703 66.8621 33.6182 66.9675 33.6631C67.073 33.708 67.1951 33.752 67.3337 33.7949C67.5662 33.8652 67.7703 33.9443 67.946 34.0322C68.1238 34.1201 68.2722 34.2188 68.3914 34.3281C68.5105 34.4375 68.6003 34.5615 68.6609 34.7002C68.7214 34.8389 68.7517 34.9961 68.7517 35.1719C68.7517 35.3574 68.7156 35.5234 68.6433 35.6699C68.571 35.8164 68.4666 35.9404 68.3298 36.042C68.1931 36.1436 68.03 36.2207 67.8406 36.2734C67.6511 36.3262 67.4392 36.3525 67.2048 36.3525C66.9939 36.3525 66.7859 36.3252 66.5808 36.2705C66.3757 36.2139 66.1892 36.1289 66.0212 36.0156C65.8552 35.9023 65.7224 35.7578 65.6228 35.582C65.5232 35.4062 65.4734 35.1982 65.4734 34.958H66.3552C66.3552 35.0908 66.3757 35.2031 66.4167 35.2949C66.4578 35.3867 66.5154 35.4609 66.5896 35.5176C66.6658 35.5742 66.7556 35.6152 66.8591 35.6406C66.9646 35.666 67.0798 35.6787 67.2048 35.6787C67.3572 35.6787 67.4822 35.6572 67.5798 35.6143C67.6794 35.5713 67.7527 35.5117 67.7996 35.4355C67.8484 35.3594 67.8728 35.2734 67.8728 35.1777Z" fill="#2196F3"/>
</svg>
